<?xml version="1.0" encoding="utf-8"?>
<svg xmlns="http://www.w3.org/2000/svg" viewBox="0 0 128 128" width="512" height="512">
  <path d="M71.101562 33.013672C69.717969 32.958984 68.449609 33.900781 68.099609 35.300781L54.099609 91.300781C53.699609 92.900781 54.700781 94.500391 56.300781 94.900391C56.500781 95.000391 56.8 95 57 95C58.3 95 59.600391 94.099219 59.900391 92.699219L73.900391 36.699219C74.300391 35.099219 73.299219 33.499609 71.699219 33.099609C71.499219 33.049609 71.299219 33.021484 71.101562 33.013672 z M 88.0625 47.900391C87.3 47.925391 86.55 48.250391 86 48.900391C84.9 50.100391 84.899219 51.999609 86.199219 53.099609L97.800781 64L86.099609 74.900391C84.899609 76.000391 84.800391 77.899609 85.900391 79.099609C86.500391 79.699609 87.299609 80.099609 88.099609 80.099609C88.799609 80.099609 89.599609 79.800781 90.099609 79.300781L104.19922 66.199219C104.79922 65.599219 105.19922 64.8 105.19922 64C105.19922 63.2 104.89922 62.400781 104.19922 61.800781L90.199219 48.699219C89.599219 48.149219 88.825 47.875391 88.0625 47.900391 z M 40.037109 47.9375C39.274609 47.9 38.500391 48.149219 37.900391 48.699219L23.699219 61.800781C23.099219 62.400781 22.699219 63.2 22.699219 64C22.699219 64.8 22.999219 65.599219 23.699219 66.199219L37.800781 79.300781C38.400781 79.800781 39.100781 80.099609 39.800781 80.099609C40.600781 80.099609 41.4 79.799609 42 79.099609C43.1 77.899609 43.100781 76.000391 41.800781 74.900391L30.199219 64L41.900391 53.099609C43.100391 51.999609 43.199609 50.100391 42.099609 48.900391C41.549609 48.300391 40.799609 47.975 40.037109 47.9375 z" fill="#FFFFFF" />
</svg>